{
  "accessors": [
    {
      "bufferView": 2,
      "componentType": 5126,
      "count": 1766,
      "max": [
        7.050950050354004,
        2.641940116882324,
        6.1988301277160645
      ],
      "min": [
        2.949049949645996,
        -2.14389705657959,
        3.52760910987854
      ],
      "type": "VEC3"
    },
    {
      "bufferView": 2,
      "byteOffset": 21192,
      "componentType": 5126,
      "count": 1766,
      "max": [
        0.9996671080589294,
        1.0,
        0.9996408820152283
      ],
      "min": [
        -0.9996671080589294,
        -1.0,
        -0.9998571872711182
      ],
      "type": "VEC3"
    },
    {
      "bufferView": 3,
      "componentType": 5126,
      "count": 1766,
      "max": [
        0.9999703168869019,
        0.9859955906867981,
        0.9998074769973755,
        1.0
      ],
      "min": [
        -0.9997383952140808,
        -0.9891969561576843,
        -0.9991915225982666,
        1.0
      ],
      "type": "VEC4"
    },
    {
      "bufferView": 1,
      "componentType": 5126,
      "count": 1766,
      "max": [
        0.5888019800186157,
        0.9906799793243408
      ],
      "min": [
        0.007584000006318092,
        0.018964000046253204
      ],
      "type": "VEC2"
    },
    {
      "bufferView": 0,
      "componentType": 5125,
      "count": 10308,
      "type": "SCALAR"
    },
    {
      "bufferView": 2,
      "byteOffset": 42384,
      "componentType": 5126,
      "count": 1766,
      "max": [
        2.050950050354004,
        2.641940116882324,
        6.198829174041748
      ],
      "min": [
        -2.050950050354004,
        -2.14389705657959,
        3.52760910987854
      ],
      "type": "VEC3"
    },
    {
      "bufferView": 2,
      "byteOffset": 63576,
      "componentType": 5126,
      "count": 1766,
      "max": [
        0.9996671080589294,
        1.0,
        0.9996408820152283
      ],
      "min": [
        -0.9996671080589294,
        -1.0,
        -0.9998571872711182
      ],
      "type": "VEC3"
    },
    {
      "bufferView": 3,
      "byteOffset": 28256,
      "componentType": 5126,
      "count": 1766,
      "max": [
        0.9999703168869019,
        0.9859955906867981,
        0.999807596206665,
        1.0
      ],
      "min": [
        -0.999738335609436,
        -0.9891970157623291,
        -0.9991915225982666,
        1.0
      ],
      "type": "VEC4"
    },
    {
      "bufferView": 1,
      "byteOffset": 14128,
      "componentType": 5126,
      "count": 1766,
      "max": [
        0.5888019800186157,
        0.9906799793243408
      ],
      "min": [
        0.007584000006318092,
        0.018964000046253204
      ],
      "type": "VEC2"
    },
    {
      "bufferView": 0,
      "byteOffset": 41232,
      "componentType": 5125,
      "count": 10308,
      "type": "SCALAR"
    }
  ],
  "asset": {
    "extras": {
      "author": "Nol22 (https://sketchfab.com/manoloescobedo22)",
      "license": "CC-BY-4.0 (http://creativecommons.org/licenses/by/4.0/)",
      "source": "https://sketchfab.com/3d-models/construction-helmet-83743fb594274f75965cb71ca0730d75",
      "title": "Construction helmet"
    },
    "generator": "Sketchfab-14.32.0",
    "version": "2.0"
  },
  "bufferViews": [
    {
      "buffer": 0,
      "byteLength": 82464,
      "name": "floatBufferViews",
      "target": 34963
    },
    {
      "buffer": 0,
      "byteLength": 28256,
      "byteOffset": 82464,
      "byteStride": 8,
      "name": "floatBufferViews",
      "target": 34962
    },
    {
      "buffer": 0,
      "byteLength": 84768,
      "byteOffset": 110720,
      "byteStride": 12,
      "name": "floatBufferViews",
      "target": 34962
    },
    {
      "buffer": 0,
      "byteLength": 56512,
      "byteOffset": 195488,
      "byteStride": 16,
      "name": "floatBufferViews",
      "target": 34962
    }
  ],
  "buffers": [
    {
      "byteLength": 252000,
      "uri": "scene.bin"
    }
  ],
  "images": [
    {
      "uri": "textures/crem_baseColor.jpeg"
    },
    {
      "uri": "textures/crem_metallicRoughness.png"
    },
    {
      "uri": "textures/crem_normal.png"
    },
    {
      "uri": "textures/material_baseColor.jpeg"
    },
    {
      "uri": "textures/material_metallicRoughness.png"
    },
    {
      "uri": "textures/material_normal.png"
    }
  ],
  "materials": [
    {
      "doubleSided": true,
      "name": "crem",
      "normalTexture": {
        "index": 2
      },
      "pbrMetallicRoughness": {
        "baseColorTexture": {
          "index": 0
        },
        "metallicFactor": 0.0,
        "metallicRoughnessTexture": {
          "index": 1
        }
      }
    },
    {
      "doubleSided": true,
      "name": "material",
      "normalTexture": {
        "index": 5
      },
      "pbrMetallicRoughness": {
        "baseColorTexture": {
          "index": 3
        },
        "metallicFactor": 0.0,
        "metallicRoughnessTexture": {
          "index": 4
        }
      }
    }
  ],
  "meshes": [
    {
      "name": "Object_0",
      "primitives": [
        {
          "attributes": {
            "NORMAL": 1,
            "POSITION": 0,
            "TANGENT": 2,
            "TEXCOORD_0": 3
          },
          "indices": 4,
          "material": 0,
          "mode": 4
        }
      ]
    },
    {
      "name": "Object_1",
      "primitives": [
        {
          "attributes": {
            "NORMAL": 6,
            "POSITION": 5,
            "TANGENT": 7,
            "TEXCOORD_0": 8
          },
          "indices": 9,
          "material": 1,
          "mode": 4
        }
      ]
    }
  ],
  "nodes": [
    {
      "children": [
        1
      ],
      "matrix": [
        1.0,
        0.0,
        0.0,
        0.0,
        0.0,
        2.220446049250313e-16,
        -1.0,
        0.0,
        0.0,
        1.0,
        2.220446049250313e-16,
        0.0,
        0.0,
        0.0,
        0.0,
        1.0
      ],
      "name": "Sketchfab_model"
    },
    {
      "children": [
        2,
        3
      ],
      "name": "9985004358934e14a13ab633db3f62d8.obj.cleaner.materialmerger.gles"
    },
    {
      "mesh": 0,
      "name": "Object_2"
    },
    {
      "mesh": 1,
      "name": "Object_3"
    }
  ],
  "samplers": [
    {
      "magFilter": 9729,
      "minFilter": 9987,
      "wrapS": 10497,
      "wrapT": 10497
    }
  ],
  "scene": 0,
  "scenes": [
    {
      "name": "Sketchfab_Scene",
      "nodes": [
        0
      ]
    }
  ],
  "textures": [
    {
      "sampler": 0,
      "source": 0
    },
    {
      "sampler": 0,
      "source": 1
    },
    {
      "sampler": 0,
      "source": 2
    },
    {
      "sampler": 0,
      "source": 3
    },
    {
      "sampler": 0,
      "source": 4
    },
    {
      "sampler": 0,
      "source": 5
    }
  ]
}
