{
    "asset" : {
        "generator" : "Khronos glTF Blender I/O v3.4.50",
        "version" : "2.0"
    },
    "scene" : 0,
    "scenes" : [
        {
            "name" : "Scene",
            "nodes" : [
                3
            ]
        }
    ],
    "nodes" : [
        {
            "mesh" : 0,
            "name" : "cap",
            "translation" : [
                -0.011773175559937954,
                -1.2427568435668945e-05,
                0
            ]
        },
        {
            "mesh" : 1,
            "name" : "mug",
            "translation" : [
                -0.011773175559937954,
                -1.2427568435668945e-05,
                0
            ]
        },
        {
            "mesh" : 2,
            "name" : "pad",
            "translation" : [
                -0.011773175559937954,
                -1.2427568435668945e-05,
                0
            ]
        },
        {
            "children" : [
                0,
                1,
                2
            ],
            "name" : "electric_thermo_mug_grp",
            "scale" : [
                100,
                100,
                100
            ]
        }
    ],
    "materials" : [
        {
            "doubleSided" : true,
            "name" : "emug.001",
            "normalTexture" : {
                "index" : 0
            },
            "occlusionTexture" : {
                "index" : 1
            },
            "pbrMetallicRoughness" : {
                "baseColorTexture" : {
                    "index" : 2
                },
                "metallicRoughnessTexture" : {
                    "index" : 1
                }
            }
        }
    ],
    "meshes" : [
        {
            "name" : "cap",
            "primitives" : [
                {
                    "attributes" : {
                        "POSITION" : 0,
                        "TEXCOORD_0" : 1,
                        "NORMAL" : 2
                    },
                    "indices" : 3,
                    "material" : 0
                }
            ]
        },
        {
            "name" : "mug",
            "primitives" : [
                {
                    "attributes" : {
                        "POSITION" : 4,
                        "TEXCOORD_0" : 5,
                        "NORMAL" : 6
                    },
                    "indices" : 7,
                    "material" : 0
                }
            ]
        },
        {
            "name" : "pad",
            "primitives" : [
                {
                    "attributes" : {
                        "POSITION" : 8,
                        "TEXCOORD_0" : 9,
                        "NORMAL" : 10
                    },
                    "indices" : 11,
                    "material" : 0
                }
            ]
        }
    ],
    "textures" : [
        {
            "sampler" : 0,
            "source" : 0
        },
        {
            "sampler" : 0,
            "source" : 1
        },
        {
            "sampler" : 0,
            "source" : 2
        }
    ],
    "images" : [
        {
            "mimeType" : "image/png",
            "name" : "emug_normal",
            "uri" : "emug_normal.png"
        },
        {
            "mimeType" : "image/png",
            "name" : "emug_ao-emug_roughness-emug_metallic",
            "uri" : "emug_ao-emug_roughness-emug_metallic.png"
        },
        {
            "mimeType" : "image/png",
            "name" : "emug_basecolor",
            "uri" : "emug_basecolor.png"
        }
    ],
    "accessors" : [
        {
            "bufferView" : 0,
            "componentType" : 5126,
            "count" : 4539,
            "max" : [
                0.07764020562171936,
                0.23910783231258392,
                0.07764020562171936
            ],
            "min" : [
                -0.07764020562171936,
                0.2043304443359375,
                -0.07764019817113876
            ],
            "type" : "VEC3"
        },
        {
            "bufferView" : 1,
            "componentType" : 5126,
            "count" : 4539,
            "type" : "VEC2"
        },
        {
            "bufferView" : 2,
            "componentType" : 5126,
            "count" : 4539,
            "type" : "VEC3"
        },
        {
            "bufferView" : 3,
            "componentType" : 5123,
            "count" : 23592,
            "type" : "SCALAR"
        },
        {
            "bufferView" : 4,
            "componentType" : 5126,
            "count" : 18793,
            "max" : [
                0.15321187674999237,
                0.21702730655670166,
                0.07819321006536484
            ],
            "min" : [
                -0.07819321006536484,
                0.0286412313580513,
                -0.07819321006536484
            ],
            "type" : "VEC3"
        },
        {
            "bufferView" : 5,
            "componentType" : 5126,
            "count" : 18793,
            "type" : "VEC2"
        },
        {
            "bufferView" : 6,
            "componentType" : 5126,
            "count" : 18793,
            "type" : "VEC3"
        },
        {
            "bufferView" : 7,
            "componentType" : 5123,
            "count" : 98208,
            "type" : "SCALAR"
        },
        {
            "bufferView" : 8,
            "componentType" : 5126,
            "count" : 4815,
            "max" : [
                0.08095231652259827,
                0.03995661064982414,
                0.08095231652259827
            ],
            "min" : [
                -0.1296655237674713,
                1.2427568435668945e-05,
                -0.08095232397317886
            ],
            "type" : "VEC3"
        },
        {
            "bufferView" : 9,
            "componentType" : 5126,
            "count" : 4815,
            "type" : "VEC2"
        },
        {
            "bufferView" : 10,
            "componentType" : 5126,
            "count" : 4815,
            "type" : "VEC3"
        },
        {
            "bufferView" : 11,
            "componentType" : 5123,
            "count" : 25656,
            "type" : "SCALAR"
        }
    ],
    "bufferViews" : [
        {
            "buffer" : 0,
            "byteLength" : 54468,
            "byteOffset" : 0,
            "target" : 34962
        },
        {
            "buffer" : 0,
            "byteLength" : 36312,
            "byteOffset" : 54468,
            "target" : 34962
        },
        {
            "buffer" : 0,
            "byteLength" : 54468,
            "byteOffset" : 90780,
            "target" : 34962
        },
        {
            "buffer" : 0,
            "byteLength" : 47184,
            "byteOffset" : 145248,
            "target" : 34963
        },
        {
            "buffer" : 0,
            "byteLength" : 225516,
            "byteOffset" : 192432,
            "target" : 34962
        },
        {
            "buffer" : 0,
            "byteLength" : 150344,
            "byteOffset" : 417948,
            "target" : 34962
        },
        {
            "buffer" : 0,
            "byteLength" : 225516,
            "byteOffset" : 568292,
            "target" : 34962
        },
        {
            "buffer" : 0,
            "byteLength" : 196416,
            "byteOffset" : 793808,
            "target" : 34963
        },
        {
            "buffer" : 0,
            "byteLength" : 57780,
            "byteOffset" : 990224,
            "target" : 34962
        },
        {
            "buffer" : 0,
            "byteLength" : 38520,
            "byteOffset" : 1048004,
            "target" : 34962
        },
        {
            "buffer" : 0,
            "byteLength" : 57780,
            "byteOffset" : 1086524,
            "target" : 34962
        },
        {
            "buffer" : 0,
            "byteLength" : 51312,
            "byteOffset" : 1144304,
            "target" : 34963
        }
    ],
    "samplers" : [
        {
            "magFilter" : 9729,
            "minFilter" : 9987
        }
    ],
    "buffers" : [
        {
            "byteLength" : 1195616,
            "uri" : "electric thermo mug.bin"
        }
    ]
}
